<?xml version="1.0" encoding="UTF-8"?>
<svg width="151px" height="40px" viewBox="0 0 151 40" version="1.1" xmlns="http://www.w3.org/2000/svg" xmlns:xlink="http://www.w3.org/1999/xlink">
    <!-- Generator: Sketch 52 (66869) - http://www.bohemiancoding.com/sketch -->
    <title>Group 7</title>
    <desc>Created with Sketch.</desc>
    <g id="Original" stroke="none" stroke-width="1" fill="none" fill-rule="evenodd">
        <g id="8-copy" transform="translate(-222.000000, -30.000000)">
            <g id="Group-7" transform="translate(222.000000, 30.000000)">
                <g id="Group-6">
                    <path d="M61.1429865,36 L55,36 L55,12 L61.1429865,12 L61.1429865,14.3998254 C61.1429865,13.7757834 61.3809211,13.1997671 61.8573679,12.7198021 C62.3332371,12.239837 62.9049732,12 63.5237764,12 L74.6192101,12 C75.2859468,12 75.8571054,12.239837 76.3335521,12.7198021 C76.7617766,13.1997671 77,13.7757834 77,14.3998254 L77,35.9997089 L70.8573022,35.9997089 L70.8573022,17.9997089 L63.5237764,17.9997089 C62.9049732,17.9997089 62.3332371,18.239837 61.8573679,18.6717765 C61.3809211,19.1517415 61.1429865,19.7277578 61.1429865,20.3995343 L61.1429865,35.9997089 L61.1429865,36 Z" id="Path" fill="#FFFFFF"></path>
                    <path d="M92,3.57643829 C92,3.19224319 92.1858607,3 92.5581461,3 L97.4415719,3 C97.8138573,3 98,3.19224319 98,3.57643829 L98,8.42795735 C98,8.81215245 97.8138573,9.00439564 97.4415719,9.00439564 L92.5581461,9.00439564 C92.1858607,9.00439564 92,8.81215245 92,8.42795735 L92,3.57643829 Z M98,36 L92,36 L92,11.9824174 L98,11.9824174 L98,36 Z" id="Shape" fill="#FFFFFF" fill-rule="nonzero"></path>
                    <path d="M108.142778,36 L102,36 L102,3 L108.142778,3 L108.142778,14.3842922 C108.142778,13.7597931 108.381005,13.1833548 108.857169,12.7030381 C109.333333,12.2227214 109.904788,11.9827087 110.5236,11.9827087 L121.619179,11.9827087 C122.285924,11.9827087 122.857379,12.2227214 123.333543,12.7030381 C123.762062,13.1833548 124,13.7597931 124,14.3842922 L124,36 L117.857222,36 L117.857222,17.9868131 L110.5236,17.9868131 C109.904788,17.9868131 109.333333,18.2271171 108.857169,18.659373 C108.381005,19.1396897 108.142778,19.716128 108.142778,20.3883966 L108.142778,36 Z" id="Path" fill="#FFFFFF"></path>
                    <path d="M144.857222,12 L151,12 L151,36 L144.857222,36 L144.857222,33.6001746 C144.857222,34.2719511 144.618995,34.8479674 144.142831,35.2801979 C143.666667,35.7598719 143.095212,36 142.428755,36 L131.380821,36 C130.714076,36 130.142621,35.7598719 129.714102,35.2801979 C129.237649,34.8479674 129,34.2719511 129,33.6001746 L129,12.0002911 L135.142778,12.0002911 L135.142778,30 L142.428755,30 C143.095212,30 143.666667,29.760163 144.142831,29.2799069 C144.618995,28.8479674 144.857222,28.2719511 144.857222,27.5998836 L144.857222,12 Z" id="Path" fill="#FFFFFF"></path>
                    <g id="Group-5">
                        <path d="M37.9994239,25.1556729 C37.9994239,21.2210095 37.8384009,6.49935531 37.1283444,5.17016105 C36.1388742,3.31679832 33.4432519,2.2489492 31.347361,3.75464011 C29.1022573,5.36735245 30.7940066,8.40829822 29.6515789,10.9298057 C28.6868815,13.0587043 25.9160767,13.4483569 23.9642135,11.7434051 C21.6528571,9.72448435 10.5679099,0.345032151 9.42490615,0.09462567 C6.80158579,-0.479505836 4.6852429,1.63697586 5.03868685,4.33054545 C5.30254558,6.34089264 7.96849814,7.99942908 9.21750627,9.03327968 L18.6518961,16.93897 C21.8870461,19.4817636 24.9456182,22.1871587 28.1467776,24.8032708 C29.1797442,25.647321 32.0228508,28.3015706 33.0316208,28.7060051 C35.70103,29.7759237 38,27.7735588 38,25.1550816 L37.9994239,25.1556729 Z" id="Path" fill="#CB2026"></path>
                        <path d="M2.22229155,12.2459145 C-0.285404133,13.1577163 -0.0326632452,15.7813487 0.046483785,18.6481668 C0.116509782,21.1915075 0.0965023543,33.9460464 0.894151421,35.3086947 C1.90511497,37.0358328 4.96742832,38.2508946 6.89843932,36.4778343 C9.40260428,34.1788345 7.14294186,31.6614875 8.60848594,29.4384472 C10.1487636,27.1016121 12.7314872,27.3468195 14.6522002,29.0574948 L24.2951919,37.0190813 C25.933153,38.4675089 27.7232293,40.2914013 29.9213983,39.9607035 C32.0513067,39.6404031 33.9799639,37.1019723 32.4502783,34.5973334 C31.6614561,33.3057345 11.7108141,17.3424158 8.33838566,14.674594 C6.94875212,13.5756375 4.98831843,11.2396689 2.22229155,12.2459145 Z" id="Path" fill="#FFFFFF"></path>
                    </g>
                </g>
                <g id="Path-2" transform="translate(81.000000, 3.000000)" fill="#FFFFFF">
                    <path d="M0.557890283,5.88243128 C0.418558736,5.88243128 0.278945142,5.83534671 0.185869412,5.74117759 C0.0465378649,5.64700847 0,5.50575478 0,5.36478645 L0,0.564729383 C0,0.423475697 0.0465378649,0.282222011 0.185869412,0.141253686 C0.278945142,0.047084562 0.418558736,0 0.557890283,0 L5.48836553,0 C5.62797913,0 5.76731068,0.047084562 5.86038641,0.141253686 C5.95346214,0.282222011 6,0.423475697 6,0.564729383 L6,5.88243128 C6,6.72938267 5.86038641,7.52953486 5.5349034,8.23523257 C5.20942039,8.9883002 4.79086166,9.64719871 4.27894514,10.2119281 C3.72105486,10.7763721 3.0698068,11.2001332 2.37202087,11.5297251 C1.62769708,11.8590317 0.837117473,12 0,12 L0,11.2001332 C0.883655338,10.6824883 1.62769708,9.92942072 2.18615146,8.9883002 C2.74432379,8.04717968 3.02326893,7.01189004 3.02326893,5.88243128 L0.557890283,5.88243128 Z" id="Path"></path>
                </g>
            </g>
        </g>
    </g>
</svg>