<?xml version="1.0" encoding="UTF-8"?>
<svg width="151px" height="41px" viewBox="0 0 151 41" version="1.1" xmlns="http://www.w3.org/2000/svg" xmlns:xlink="http://www.w3.org/1999/xlink">
    <!-- Generator: Sketch 52.1 (67048) - http://www.bohemiancoding.com/sketch -->
    <title>Group 6</title>
    <desc>Created with Sketch.</desc>
    <g id="Original" stroke="none" stroke-width="1" fill="none" fill-rule="evenodd">
        <g id="8" transform="translate(-222.000000, -29.000000)">
            <g id="Group-6" transform="translate(222.000000, 29.000000)">
                <path d="M61.1429865,37 L55,37 L55,13 L61.1429865,13 L61.1429865,15.3998254 C61.1429865,14.7757834 61.3809211,14.1997671 61.8573679,13.7198021 C62.3332371,13.239837 62.9049732,13 63.5237764,13 L74.6192101,13 C75.2859468,13 75.8571054,13.239837 76.3335521,13.7198021 C76.7617766,14.1997671 77,14.7757834 77,15.3998254 L77,36.9997089 L70.8573022,36.9997089 L70.8573022,18.9997089 L63.5237764,18.9997089 C62.9049732,18.9997089 62.3332371,19.239837 61.8573679,19.6717765 C61.3809211,20.1517415 61.1429865,20.7277578 61.1429865,21.3995343 L61.1429865,36.9997089 L61.1429865,37 Z" id="Path" fill="#FFFFFF"></path>
                <path d="M92,4.57643829 C92,4.19224319 92.1858607,4 92.5581461,4 L97.4415719,4 C97.8138573,4 98,4.19224319 98,4.57643829 L98,9.42795735 C98,9.81215245 97.8138573,10.0043956 97.4415719,10.0043956 L92.5581461,10.0043956 C92.1858607,10.0043956 92,9.81215245 92,9.42795735 L92,4.57643829 Z M98,37 L92,37 L92,12.9824174 L98,12.9824174 L98,37 Z" id="Shape" fill="#FFFFFF" fill-rule="nonzero"></path>
                <path d="M108.142778,37 L102,37 L102,4 L108.142778,4 L108.142778,15.3842922 C108.142778,14.7597931 108.381005,14.1833548 108.857169,13.7030381 C109.333333,13.2227214 109.904788,12.9827087 110.5236,12.9827087 L121.619179,12.9827087 C122.285924,12.9827087 122.857379,13.2227214 123.333543,13.7030381 C123.762062,14.1833548 124,14.7597931 124,15.3842922 L124,37 L117.857222,37 L117.857222,18.9868131 L110.5236,18.9868131 C109.904788,18.9868131 109.333333,19.2271171 108.857169,19.659373 C108.381005,20.1396897 108.142778,20.716128 108.142778,21.3883966 L108.142778,37 Z" id="Path" fill="#FFFFFF"></path>
                <path d="M144.857222,13 L151,13 L151,37 L144.857222,37 L144.857222,34.6001746 C144.857222,35.2719511 144.618995,35.8479674 144.142831,36.2801979 C143.666667,36.7598719 143.095212,37 142.428755,37 L131.380821,37 C130.714076,37 130.142621,36.7598719 129.714102,36.2801979 C129.237649,35.8479674 129,35.2719511 129,34.6001746 L129,13.0002911 L135.142778,13.0002911 L135.142778,31 L142.428755,31 C143.095212,31 143.666667,30.760163 144.142831,30.2799069 C144.618995,29.8479674 144.857222,29.2719511 144.857222,28.5998836 L144.857222,13 Z" id="Path" fill="#FFFFFF"></path>
                <g id="Group-8">
                    <path d="M37.9994239,26.1556729 C37.9994239,22.2210095 37.8384009,7.49935531 37.1283444,6.17016105 C36.1388742,4.31679832 33.4432519,3.2489492 31.347361,4.75464011 C29.1022573,6.36735245 30.7940066,9.40829822 29.6515789,11.9298057 C28.6868815,14.0587043 25.9160767,14.4483569 23.9642135,12.7434051 C21.6528571,10.7244843 10.5679099,1.34503215 9.42490615,1.09462567 C6.80158579,0.520494164 4.6852429,2.63697586 5.03868685,5.33054545 C5.30254558,7.34089264 7.96849814,8.99942908 9.21750627,10.0332797 L18.6518961,17.93897 C21.8870461,20.4817636 24.9456182,23.1871587 28.1467776,25.8032708 C29.1797442,26.647321 32.0228508,29.3015706 33.0316208,29.7060051 C35.70103,30.7759237 38,28.7735588 38,26.1550816 L37.9994239,26.1556729 Z" id="Path" fill="#CB2026"></path>
                    <path d="M2.22229155,13.2459145 C-0.285404133,14.1577163 -0.0326632452,16.7813487 0.046483785,19.6481668 C0.116509782,22.1915075 0.0965023543,34.9460464 0.894151421,36.3086947 C1.90511497,38.0358328 4.96742832,39.2508946 6.89843932,37.4778343 C9.40260428,35.1788345 7.14294186,32.6614875 8.60848594,30.4384472 C10.1487636,28.1016121 12.7314872,28.3468195 14.6522002,30.0574948 L24.2951919,38.0190813 C25.933153,39.4675089 27.7232293,41.2914013 29.9213983,40.9607035 C32.0513067,40.6404031 33.9799639,38.1019723 32.4502783,35.5973334 C31.6614561,34.3057345 11.7108141,18.3424158 8.33838566,15.674594 C6.94875212,14.5756375 4.98831843,12.2396689 2.22229155,13.2459145 Z" id="Path" fill="#FFFFFF"></path>
                    <path d="M16.6792769,0.217567324 C14.9850465,0.529625831 14.4622176,2.09520252 15.6232603,2.98059147 C16.441889,3.60558918 18.768866,3.11475021 19.979976,3.15702342 C22.2753013,3.23657926 27.2595842,5.05227246 27.6753728,4.99884381 C28.3314266,4.91459095 31.4522864,2.66001961 24.9567776,0.858417485 C22.4013327,0.149460481 19.4134101,-0.285601332 16.6789891,0.21727376 L16.6792769,0.217567324 Z" id="Path" fill="#CB2026"></path>
                </g>
                <path d="M81.5578903,9.88243128 C81.4185587,9.88243128 81.2789451,9.83534671 81.1858694,9.74117759 C81.0465379,9.64700847 81,9.50575478 81,9.36478645 L81,4.56472938 C81,4.4234757 81.0465379,4.28222201 81.1858694,4.14125369 C81.2789451,4.04708456 81.4185587,4 81.5578903,4 L86.4883655,4 C86.6279791,4 86.7673107,4.04708456 86.8603864,4.14125369 C86.9534621,4.28222201 87,4.4234757 87,4.56472938 L87,9.88243128 C87,10.7293827 86.8603864,11.5295349 86.5349034,12.2352326 C86.2094204,12.9883002 85.7908617,13.6471987 85.2789451,14.2119281 C84.7210549,14.7763721 84.0698068,15.2001332 83.3720209,15.5297251 C82.6276971,15.8590317 81.8371175,16 81,16 L81,15.2001332 C81.8836553,14.6824883 82.6276971,13.9294207 83.1861515,12.9883002 C83.7443238,12.0471797 84.0232689,11.01189 84.0232689,9.88243128 L81.5578903,9.88243128 Z" id="Path" fill="#FFFFFF"></path>
            </g>
        </g>
    </g>
</svg>