<?xml version="1.0" encoding="UTF-8"?>
<svg width="90px" height="37px" viewBox="0 0 90 37" version="1.1" xmlns="http://www.w3.org/2000/svg" xmlns:xlink="http://www.w3.org/1999/xlink">
    <!-- Generator: Sketch 52.1 (67048) - http://www.bohemiancoding.com/sketch -->
    <title>Combined Shape Copy 5</title>
    <desc>Created with Sketch.</desc>
    <g id="Page-1" stroke="none" stroke-width="1" fill="none" fill-rule="evenodd" opacity="0.769999981">
        <g id="Desktop-HD-Copy" transform="translate(-210.000000, -35.000000)" fill="#000000">
            <g id="Group-27-Copy" transform="translate(210.000000, 35.000000)">
                <path d="M21.8290258,26.3533835 C21.8290258,29.7218214 20.8523955,32.3383365 18.8991054,34.2030075 C16.9458153,36.0676785 14.2843111,37 10.9145129,37 C6.53079319,37 2.8926586,35.3007689 0,31.9022556 L3.75745527,26.2631579 C4.86084051,27.4060208 5.99402997,28.2857112 7.15705765,28.9022556 C8.32008534,29.5188001 9.37872286,29.8270677 10.333002,29.8270677 C11.3469236,29.8270677 12.1446293,29.5112814 12.7261431,28.8796992 C13.307657,28.2481171 13.5984095,27.3458705 13.5984095,26.1729323 L13.5984095,19.2804838 L2.86282306,19.2804838 L2.86282306,12.4684537 L21.8290258,12.4684537 L21.8290258,26.3533835 Z M16.8754862,1 C18.0981563,1 19.1046075,1.39849226 19.8948699,2.19548872 C20.6851323,2.99248519 21.0802576,4.02255008 21.0802576,5.28571429 C21.0802576,6.51880316 20.6851323,7.54134932 19.8948699,8.35338346 C19.1046075,9.16541759 18.0981563,9.57142857 16.8754862,9.57142857 C15.6528161,9.57142857 14.6463649,9.16541759 13.8561025,8.35338346 C13.0658401,7.54134932 12.6707148,6.51880316 12.6707148,5.28571429 C12.6707148,4.02255008 13.0658401,2.99248519 13.8561025,2.19548872 C14.6463649,1.39849226 15.6528161,1 16.8754862,1 Z M38.111332,12.2330827 L46.2972167,12.2330827 L51.3518887,29.1954887 L56.4512922,12.2330827 L64.4135189,12.2330827 L55.333002,36.6390977 L47.1471173,36.6390977 L38.111332,12.2330827 Z M77.7435388,11.962406 C81.6799402,11.962406 84.7067489,13.1353266 86.8240557,15.481203 C88.9413625,17.8270794 90,21.0450923 90,25.1353383 C90,25.7669205 89.9850896,26.2481186 89.9552684,26.5789474 L73.1361829,26.5789474 C73.5238588,27.9624129 74.1948262,29.0225527 75.1491054,29.7593985 C76.1033845,30.4962443 77.2663947,30.8646617 78.638171,30.8646617 C79.6819138,30.8646617 80.6883649,30.6541374 81.6575547,30.2330827 C82.6267444,29.812028 83.5139125,29.1954928 84.3190855,28.3834586 L88.4791252,32.5789474 C87.2266339,33.9924883 85.7132295,35.0676655 83.9388668,35.8045113 C82.1645041,36.5413571 80.1590569,36.9097744 77.9224652,36.9097744 C75.3280188,36.9097744 73.0616399,36.3985014 71.1232604,35.3759398 C69.184881,34.3533783 67.7012974,32.9097838 66.6724652,31.0451128 C65.643633,29.1804418 65.1292247,27.0150499 65.1292247,24.5488722 C65.1292247,22.0526191 65.6510882,19.8496336 66.694831,17.9398496 C67.7385738,16.0300656 69.2147022,14.5563962 71.1232604,13.518797 C73.0318187,12.4811978 75.2385561,11.962406 77.7435388,11.962406 Z M82.2614314,22.2932331 C82.2614314,20.8796922 81.8513958,19.7443652 81.0313121,18.887218 C80.2112285,18.0300709 79.1302254,17.6015038 77.7882704,17.6015038 C76.535779,17.6015038 75.4845967,18.0225522 74.6346918,18.8646617 C73.784787,19.7067711 73.2256475,20.8496168 72.9572565,22.2932331 L82.2614314,22.2932331 Z M26,12 L36,12 L36,36 L27.9719976,36 L27.9719976,18.8337218 L26,18.8337218 L26,12 Z M31.5,0 C32.8085172,0 33.8856341,0.418416868 34.731383,1.25526316 C35.5771319,2.09210945 36,3.17367758 36,4.5 C36,5.79474332 35.5771319,6.86841679 34.731383,7.72105263 C33.8856341,8.57368847 32.8085172,9 31.5,9 C30.1914828,9 29.1143659,8.57368847 28.268617,7.72105263 C27.4228681,6.86841679 27,5.79474332 27,4.5 C27,3.17367758 27.4228681,2.09210945 28.268617,1.25526316 C29.1143659,0.418416868 30.1914828,0 31.5,0 Z" id="Combined-Shape-Copy-5"></path>
            </g>
        </g>
    </g>
</svg>